<svg width="19" height="24" viewBox="0 0 19 24" fill="none" xmlns="http://www.w3.org/2000/svg">
<path d="M18.2439 16.756C18.2439 19.0935 17.3413 20.9219 15.5592 22.2179C13.9391 23.3983 11.9025 24 9.47241 24C7.1349 24 5.14454 23.3057 3.52448 21.9171C1.90442 20.5284 1.00182 18.7001 0.839811 16.4089H6.88031C6.97289 18.1447 7.89864 19.0241 9.70385 19.0241C11.3702 19.0241 12.2265 18.3067 12.2265 16.8949C12.2265 15.8766 11.2776 14.9971 9.40297 14.2565C6.25543 12.9836 4.49651 12.2199 4.14935 11.9884C2.27472 10.8312 1.32583 9.25748 1.32583 7.26712C1.32583 5.09162 2.159 3.30954 3.84849 1.92092C5.42226 0.64802 7.2969 0 9.54184 0C14.4252 0 17.133 2.31437 17.6653 6.9431H11.6711C11.6711 5.64706 10.9073 4.99903 9.40297 4.99903C8.03749 4.99903 7.36632 5.60077 7.36632 6.7811C7.36632 7.45226 7.99121 8.03085 9.24097 8.51687C10.051 8.86403 11.2776 9.39633 12.8977 10.0906C16.4387 11.5255 18.2439 13.7474 18.2439 16.756Z" fill="white"/>
</svg>
